<svg viewBox="0 0 29 27.6" fill="none" xmlns="http://www.w3.org/2000/svg">
<path d="M7.26 27.61V23.67C4.07 23.67 3.98 20.29 3.98 20.29V6.01999H0V19.32C0 20.96 0.33 22.43 1.1 23.87C2.12 25.79 3.85 27.61 7.27 27.61H7.26Z" fill="#CC00FF"/>
<path d="M20.77 0V3.94C23.96 3.94 24.05 7.32 24.05 7.32V21.58H28.04V8.28C28.04 6.64 27.71 5.17 26.94 3.73C25.91 1.82 24.18 0 20.77 0Z" fill="#CC00FF"/>
<path d="M20.05 12.04H16.01V7.82C16.01 7.22 16.11 6.62 16.34 6.06C16.74 5.1 17.6 3.95 19.46 3.95V0C15.36 0 13.45 2.62 12.61 4.89C12.47 5.26 12.36 5.64 12.28 6.03C12.11 6.78 12.03 7.54 12.03 8.31V19.51C12.03 20.38 11.81 21.25 11.34 21.98C10.79 22.83 9.85001 23.67 8.26001 23.67V27.61C12.37 27.61 13.87 25.84 14.89 23.95C15.29 23.2 15.58 22.41 15.77 21.59C15.94 20.86 16.02 20.11 16.02 19.36V13.97H20.06V12.04H20.05Z" fill="#CC00FF"/>
</svg>
